<svg id="visual" viewBox="0 0 960 540" width="960" height="540" xmlns="http://www.w3.org/2000/svg" xmlns:xlink="http://www.w3.org/1999/xlink" version="1.1"><rect x="0" y="0" width="960" height="540" fill="#b8dcf7"></rect><path d="M0 330L22.8 339.7C45.7 349.3 91.3 368.7 137 379.7C182.7 390.7 228.3 393.3 274 394.5C319.7 395.7 365.3 395.3 411.2 385.7C457 376 503 357 548.8 353.7C594.7 350.3 640.3 362.7 686 361C731.7 359.3 777.3 343.7 823 333.7C868.7 323.7 914.3 319.3 937.2 317.2L960 315L960 541L937.2 541C914.3 541 868.7 541 823 541C777.3 541 731.7 541 686 541C640.3 541 594.7 541 548.8 541C503 541 457 541 411.2 541C365.3 541 319.7 541 274 541C228.3 541 182.7 541 137 541C91.3 541 45.7 541 22.8 541L0 541Z" fill="#c45f58"></path><path d="M0 389L22.8 387.8C45.7 386.7 91.3 384.3 137 383.3C182.7 382.3 228.3 382.7 274 387.3C319.7 392 365.3 401 411.2 399.7C457 398.3 503 386.7 548.8 378.7C594.7 370.7 640.3 366.3 686 374.7C731.7 383 777.3 404 823 406.7C868.7 409.3 914.3 393.7 937.2 385.8L960 378L960 541L937.2 541C914.3 541 868.7 541 823 541C777.3 541 731.7 541 686 541C640.3 541 594.7 541 548.8 541C503 541 457 541 411.2 541C365.3 541 319.7 541 274 541C228.3 541 182.7 541 137 541C91.3 541 45.7 541 22.8 541L0 541Z" fill="#a05650"></path><path d="M0 455L22.8 452.8C45.7 450.7 91.3 446.3 137 445.5C182.7 444.7 228.3 447.3 274 440.8C319.7 434.3 365.3 418.7 411.2 418.5C457 418.3 503 433.7 548.8 443C594.7 452.3 640.3 455.7 686 450.5C731.7 445.3 777.3 431.7 823 427.7C868.7 423.7 914.3 429.3 937.2 432.2L960 435L960 541L937.2 541C914.3 541 868.7 541 823 541C777.3 541 731.7 541 686 541C640.3 541 594.7 541 548.8 541C503 541 457 541 411.2 541C365.3 541 319.7 541 274 541C228.3 541 182.7 541 137 541C91.3 541 45.7 541 22.8 541L0 541Z" fill="#7d4d48"></path><path d="M0 460L22.8 456.2C45.7 452.3 91.3 444.7 137 442.2C182.7 439.7 228.3 442.3 274 447.3C319.7 452.3 365.3 459.7 411.2 459.3C457 459 503 451 548.8 448C594.7 445 640.3 447 686 453.8C731.7 460.7 777.3 472.3 823 472.7C868.7 473 914.3 462 937.2 456.5L960 451L960 541L937.2 541C914.3 541 868.7 541 823 541C777.3 541 731.7 541 686 541C640.3 541 594.7 541 548.8 541C503 541 457 541 411.2 541C365.3 541 319.7 541 274 541C228.3 541 182.7 541 137 541C91.3 541 45.7 541 22.8 541L0 541Z" fill="#5b4340"></path><path d="M0 488L22.8 489.2C45.7 490.3 91.3 492.7 137 491.2C182.7 489.7 228.3 484.3 274 485C319.7 485.7 365.3 492.3 411.2 493.5C457 494.7 503 490.3 548.8 491.2C594.7 492 640.3 498 686 501.8C731.7 505.7 777.3 507.3 823 506.7C868.7 506 914.3 503 937.2 501.5L960 500L960 541L937.2 541C914.3 541 868.7 541 823 541C777.3 541 731.7 541 686 541C640.3 541 594.7 541 548.8 541C503 541 457 541 411.2 541C365.3 541 319.7 541 274 541C228.3 541 182.7 541 137 541C91.3 541 45.7 541 22.8 541L0 541Z" fill="#383838"></path></svg>